:SAMPLES-PER-SECOND 30
:FULLY-SPECIFIED
:DEGREES
164
root  -1.95391 39.5336 -33.7386 -8.78876 69.579 -8.72533
RightUpLeg  -9.66134 -14.7209 6.66759
RightLeg  22.333 -6.32925 0.187933
RightFoot  -12.0105 -0.121678 -7.0596
RightToes  0.000482159 0.542163 -0.142577
Spine  6.72202 -0.657362 12.1452
Spine1  13.4994 1.0782 -2.31092
HEad  0.554793 3.77831 -6.64518
LeftShoulder1  8.25099 -13.0758 -43.2861
LeftArm  -9.51341 11.1045 -24.6572
LeftForeArm  25.2421 -72.5959 -36.9401
LeftHand  -0.25398 0.0180481 5.50724
RightShoulder  4.78575 8.87011 32.7351
RightArm  -10.1547 -17.6292 25.2882
RightForeArm  8.89844 76.7728 67.6486
RightHand  0.789207 -12.6687 -13.4612
LeftUpLeg  -22.6213 0.886761 4.75846
LeftLeg  57.0822 3.05438 5.58907
LeftFoot  1.60413 0.0754549 -0.775341
LeftToes  1.06248e-005 4.65854e-005 -8.185e-006
165
root  -0.418799 39.6608 -33.0637 -7.59862 68.6304 -7.49719
RightUpLeg  -5.73771 -12.2666 5.47522
RightLeg  20.4294 -7.55765 0.931281
RightFoot  -13.3874 -0.199371 -6.09282
RightToes  0.000482159 0.542163 -0.142577
Spine  6.2446 0.0914046 11.9543
Spine1  13.4946 1.90318 -3.10197
HEad  1.4058 3.82124 -6.83816
LeftShoulder1  8.12357 -12.9497 -42.9232
LeftArm  -9.58135 11.8134 -24.8158
LeftForeArm  25.7098 -72.8245 -37.5792
LeftHand  -0.25398 0.0180481 5.50724
RightShoulder  4.77151 8.83454 32.7311
RightArm  -9.55379 -17.1337 25.3492
RightForeArm  6.75327 76.5839 65.7663
RightHand  0.741586 -11.9039 -14.1135
LeftUpLeg  -24.8415 1.66493 4.24606
LeftLeg  48.6785 3.07546 4.18852
LeftFoot  -0.415726 0.121836 -1.26013
LeftToes  1.06248e-005 4.65854e-005 -8.185e-006
166
root  1.11919 39.6528 -32.4114 -7.37979 68.0544 -7.07587
RightUpLeg  -1.89704 -10.9271 4.63853
RightLeg  19.0498 -8.23065 1.62725
RightFoot  -14.7868 -0.270383 -5.63395
RightToes  0.000482159 0.542163 -0.142577
Spine  6.08721 0.560859 11.9221
Spine1  13.4781 2.42895 -3.72177
HEad  1.82478 4.00582 -6.96719
LeftShoulder1  7.99679 -12.8135 -42.5855
LeftArm  -9.81428 12.1713 -25.026
LeftForeArm  26.0201 -72.9794 -38.0299
LeftHand  -0.25398 0.0180481 5.50724
RightShoulder  4.79017 8.87673 32.75
RightArm  -8.88642 -16.5817 25.2016
RightForeArm  5.26461 76.4734 64.8313
RightHand  0.719772 -11.4755 -14.6349
LeftUpLeg  -25.5105 3.84214 3.40433
LeftLeg  37.4691 2.11731 2.15006
LeftFoot  -1.31993 0.199032 -2.17182
LeftToes  1.06248e-005 4.65854e-005 -8.185e-006
167
root  2.66615 39.6209 -31.7696 -7.05693 67.9356 -6.78896
RightUpLeg  1.88971 -9.78069 3.9908
RightLeg  17.0965 -9.40117 2.22728
RightFoot  -16.0737 -0.335968 -5.50549
RightToes  0.000482159 0.542163 -0.142577
Spine  5.64124 0.815967 11.6928
Spine1  13.6273 2.70793 -4.39146
HEad  1.93167 4.47288 -7.01594
LeftShoulder1  7.88946 -12.6972 -42.2968
LeftArm  -10.1383 12.2845 -25.3137
LeftForeArm  26.2577 -73.0769 -38.3099
LeftHand  -0.25398 0.0180481 5.50724
RightShoulder  4.81122 8.93144 32.7491
RightArm  -8.31266 -16.0533 25.0009
RightForeArm  4.56997 76.4289 64.4943
RightHand  0.715541 -11.3811 -14.7733
LeftUpLeg  -25.3116 8.17171 1.33838
LeftLeg  23.9428 -0.0302608 0.54646
LeftFoot  -0.795458 0.257485 -2.72591
LeftToes  1.06248e-005 4.65854e-005 -8.185e-006
168
root  4.22092 39.5303 -31.123 -6.11612 67.9832 -5.64876
RightUpLeg  5.90952 -9.1588 3.05886
RightLeg  14.9886 -9.91859 2.68425
RightFoot  -17.4561 -0.36335 -4.61244
RightToes  0.000482159 0.542163 -0.142577
Spine  5.40498 0.924238 10.7763
Spine1  14.0048 2.93946 -4.99626
HEad  1.92387 5.063 -6.79505
LeftShoulder1  7.80812 -12.6236 -42.0343
LeftArm  -10.4309 12.2344 -25.5869
LeftForeArm  26.3699 -73.0962 -38.3504
LeftHand  -0.25398 0.0180481 5.50724
RightShoulder  4.85269 9.01526 32.8211
RightArm  -7.88896 -15.47 24.8372
RightForeArm  3.50345 76.3189 63.5429
RightHand  0.714873 -11.4121 -14.6906
LeftUpLeg  -23.7964 11.1053 -0.267772
LeftLeg  9.60809 2.78575 -1.39667
LeftFoot  -0.0330769 0.374494 -3.78763
LeftToes  1.06248e-005 4.65854e-005 -8.185e-006
169
root  5.85855 39.2559 -30.4469 -5.97261 68.0009 -4.62082
RightUpLeg  10.1775 -9.83301 1.83158
RightLeg  14.4678 -8.73131 2.82822
RightFoot  -18.9569 -0.347763 -3.28791
RightToes  0.000482159 0.542163 -0.142577
Spine  5.70365 0.972648 9.61862
Spine1  14.3462 3.0936 -5.16223
HEad  2.03222 5.57336 -6.2119
LeftShoulder1  7.74031 -12.5776 -41.7702
LeftArm  -10.6511 12.0622 -25.7001
LeftForeArm  26.2178 -73.0266 -38.145
LeftHand  -0.25398 0.0180481 5.50724
RightShoulder  4.91608 9.12624 32.9821
RightArm  -7.49169 -14.9003 24.7885
RightForeArm  1.50581 76.1089 61.8532
RightHand  0.71329 -11.3269 -14.8593
LeftUpLeg  -20.5334 3.73687 3.29507
LeftLeg  -2.23026 20.0251 -6.82938
LeftFoot  -1.02353 0.426379 -4.66488
LeftToes  1.06248e-005 4.65854e-005 -8.185e-006
170
root  7.60763 38.849 -29.7357 -6.88823 68.1367 -4.43088
RightUpLeg  14.2352 -11.9611 0.351612
RightLeg  15.7585 -6.14104 2.57191
RightFoot  -20.3008 -0.313895 -2.25024
RightToes  0.000482159 0.542163 -0.142577
Spine  6.10995 1.04655 8.58467
Spine1  14.4877 3.19165 -5.02876
HEad  2.49466 5.80838 -5.38223
LeftShoulder1  7.66561 -12.5269 -41.4772
LeftArm  -10.6577 11.7728 -25.7083
LeftForeArm  25.7734 -72.8701 -37.7172
LeftHand  -0.25398 0.0180481 5.50724
RightShoulder  4.93996 9.1568 33.0765
RightArm  -7.17983 -14.813 24.9552
RightForeArm  -0.201709 75.9369 60.6032
RightHand  0.69929 -11.0604 -15.2303
LeftUpLeg  -19.2092 4.1887 2.45706
LeftLeg  -5.73739 27.3861 -9.29787
LeftFoot  -3.14183 0.326863 -4.2364
LeftToes  1.06248e-005 4.65854e-005 -8.185e-006
171
root  9.3878 38.4808 -29.0167 -6.42162 68.6269 -3.1217
RightUpLeg  17.8156 -15.8863 -2.48105
RightLeg  17.8334 -1.50276 2.06376
RightFoot  -21.311 -0.124422 0.124676
RightToes  0.000482159 0.542163 -0.142577
Spine  6.55841 1.14635 6.67999
Spine1  14.5686 3.34203 -4.81782
HEad  3.31481 5.65304 -4.40246
LeftShoulder1  7.59428 -12.4675 -41.2255
LeftArm  -10.3476 11.3927 -25.7322
LeftForeArm  25.1961 -72.6249 -37.044
LeftHand  -0.25398 0.0180481 5.50724
RightShoulder  4.91435 9.0879 33.0868
RightArm  -7.20542 -15.4504 25.3129
RightForeArm  -0.962856 75.8344 59.8558
RightHand  0.677764 -10.9175 -15.1713
LeftUpLeg  -18.662 4.20244 1.1119
LeftLeg  -3.64504 30.956 -9.15084
LeftFoot  -1.15858 0.00503929 -0.2213
LeftToes  1.06248e-005 4.65854e-005 -8.185e-006
172
root  11.1744 38.1058 -28.3138 -4.03355 69.0283 0.130264
RightUpLeg  19.9801 -19.476 -6.4639
RightLeg  22.5104 4.04122 1.6947
RightFoot  -21.2111 0.316421 5.47458
RightToes  0.000482159 0.542163 -0.142577
Spine  7.47209 1.49877 3.72836
Spine1  14.1376 3.44599 -4.2457
HEad  4.11635 5.29379 -3.35287
LeftShoulder1  7.58732 -12.4617 -41.2009
LeftArm  -9.919 10.9233 -25.5731
LeftForeArm  24.4214 -72.2435 -36.0269
LeftHand  -0.25398 0.0180481 5.50724
RightShoulder  4.93937 9.09275 33.269
RightArm  -7.57238 -16.2623 25.704
RightForeArm  -2.12568 75.6004 58.1702
RightHand  0.676644 -11.1433 -14.5979
LeftUpLeg  -20.2614 7.87216 -2.17332
LeftLeg  4.87594 26.6129 -4.91736
LeftFoot  3.49299 -0.862935 6.38422
LeftToes  1.06248e-005 4.65854e-005 -8.185e-006
173
root  12.8932 37.8312 -27.6665 -0.307709 69.536 4.54305
RightUpLeg  18.0222 -17.1647 -8.4407
RightLeg  31.7825 3.32971 1.90461
RightFoot  -15.7455 0.297825 11.1489
RightToes  0.000482159 0.542163 -0.142577
Spine  8.72181 1.71729 0.641552
Spine1  13.427 3.27161 -3.7099
HEad  4.45736 5.12613 -2.67043
LeftShoulder1  7.71075 -12.6167 -41.4896
LeftArm  -9.65112 10.1653 -24.9277
LeftForeArm  22.8383 -71.5651 -34.4203
LeftHand  -0.25398 0.0180481 5.50724
RightShoulder  5.0736 9.2879 33.7171
RightArm  -8.00062 -16.4306 26.0501
RightForeArm  -4.75075 75.1044 55.0609
RightHand  0.678826 -11.2909 -14.2987
LeftUpLeg  -23.1431 19.1696 -9.2979
LeftLeg  13.6732 11.9675 0.676454
LeftFoot  6.51543 -1.89465 11.8795
LeftToes  1.06248e-005 4.65854e-005 -8.185e-006
174
root  14.4403 37.742 -27.1578 4.1481 70.0389 9.40538
RightUpLeg  11.5789 -14.696 -9.88716
RightLeg  45.1533 1.61004 1.39239
RightFoot  -2.89785 -0.893713 12.4976
RightToes  0.000482159 0.542163 -0.142577
Spine  10.5679 1.52565 -1.39945
Spine1  12.8243 3.0076 -4.18001
HEad  4.21653 5.32918 -3.04813
LeftShoulder1  7.96213 -12.9799 -41.9301
LeftArm  -9.5337 8.77506 -24.0155
LeftForeArm  20.0287 -70.3915 -32.0283
LeftHand  -0.25398 0.0180481 5.50724
RightShoulder  5.22027 9.54863 34.0469
RightArm  -8.37961 -15.6218 26.4152
RightForeArm  -8.06154 74.4435 51.5756
RightHand  0.631088 -10.7551 -14.6449
LeftUpLeg  -24.541 22.1147 -12.9955
LeftLeg  19.4652 7.43041 3.62512
LeftFoot  4.96525 -1.98578 13.5636
LeftToes  1.06248e-005 4.65854e-005 -8.185e-006
175
root  15.7218 37.6946 -26.8044 9.07533 70.2336 14.5674
RightUpLeg  2.44944 -11.9874 -10.9246
RightLeg  58.273 0.442716 0.325313
RightFoot  9.44978 -1.65274 9.35855
RightToes  0.000482159 0.542163 -0.142577
Spine  13.3083 1.23315 -2.71799
Spine1  12.4349 2.78214 -5.48554
HEad  3.56987 5.72565 -4.58181
LeftShoulder1  8.26311 -13.4552 -42.3227
LeftArm  -9.36032 6.65175 -23.4184
LeftForeArm  16.6588 -68.74 -29.1552
LeftHand  -0.25398 0.0180481 5.50724
RightShoulder  5.262 9.71842 33.85
RightArm  -8.86283 -13.9487 26.785
RightForeArm  -11.2954 73.6765 48.1611
RightHand  0.538206 -9.9157 -14.8817
LeftUpLeg  -23.8383 19.9666 -13.738
LeftLeg  23.4466 9.80851 4.94727
LeftFoot  0.951758 -1.4053 12.9144
LeftToes  1.06248e-005 4.65854e-005 -8.185e-006
176
root  16.9142 37.7666 -26.4825 12.4639 70.2516 18.0085
RightUpLeg  -6.53668 -9.47483 -11.263
RightLeg  67.2056 -0.00861566 -0.700511
RightFoot  12.9421 -1.10693 5.45148
RightToes  0.000482159 0.542163 -0.142577
Spine  16.2053 1.01622 -3.30041
Spine1  12.0736 2.52663 -6.39544
HEad  2.75939 6.10394 -6.38221
LeftShoulder1  8.52425 -13.8725 -42.6313
LeftArm  -9.02146 4.09469 -23.3206
LeftForeArm  13.7253 -66.8859 -26.4255
LeftHand  -0.25398 0.0180481 5.50724
RightShoulder  5.22509 9.82195 33.2673
RightArm  -9.4449 -11.6816 26.9376
RightForeArm  -14.7306 72.686 44.4539
RightHand  0.498833 -9.76689 -14.3853
LeftUpLeg  -22.3534 19.93 -14.4749
LeftLeg  25.0389 9.72683 5.26278
LeftFoot  -2.32483 -0.923422 11.8591
LeftToes  1.06248e-005 4.65854e-005 -8.185e-006
177
root  18.1487 38.0973 -26.1232 13.8806 70.9804 19.2841
RightUpLeg  -13.8582 -8.21793 -10.9823
RightLeg  69.9724 -0.284977 -1.67478
RightFoot  9.88547 -0.520547 3.16744
RightToes  0.000482159 0.542163 -0.142577
Spine  18.8932 0.529899 -3.05459
Spine1  11.5153 1.93836 -6.34374
HEad  1.96727 6.41453 -7.48094
LeftShoulder1  8.69888 -14.1463 -42.8426
LeftArm  -8.49405 1.44872 -23.4814
LeftForeArm  11.2531 -64.9871 -24.079
LeftHand  -0.25398 0.0180481 5.50724
RightShoulder  5.20723 9.94466 32.7777
RightArm  -9.86182 -9.26888 26.6285
RightForeArm  -18.3501 71.4899 40.7494
RightHand  0.525094 -10.2738 -13.5896
LeftUpLeg  -19.6948 19.9449 -14.0872
LeftLeg  24.263 8.75594 4.63415
LeftFoot  -3.88934 -0.664501 10.531
LeftToes  1.06248e-005 4.65854e-005 -8.185e-006
178
root  19.3653 38.4683 -25.7501 14.812 72.6082 19.8619
RightUpLeg  -19.5307 -8.30948 -10.6161
RightLeg  67.2658 -0.628669 -2.35475
RightFoot  6.16409 -0.456931 3.24652
RightToes  0.000482159 0.542163 -0.142577
Spine  21.4575 -0.275795 -2.30101
Spine1  10.7981 1.03169 -6.04103
HEad  1.35319 6.58998 -7.79416
LeftShoulder1  8.79021 -14.3248 -42.8597
LeftArm  -7.7088 -1.1982 -23.8199
LeftForeArm  8.71573 -62.8479 -21.8721
LeftHand  -0.25398 0.0180481 5.50724
RightShoulder  5.22166 10.0596 32.5558
RightArm  -9.98373 -7.19645 25.851
RightForeArm  -21.3557 70.2797 37.6148
RightHand  0.506732 -10.3631 -12.9494
LeftUpLeg  -16.9471 19.0815 -13.1366
LeftLeg  23.1299 8.14315 4.13634
LeftFoot  -5.07909 -0.45784 8.9123
LeftToes  1.06248e-005 4.65854e-005 -8.185e-006
